
  <svg width="250" height="250" viewBox="0 0 64 65" fill="none" xmlns="http://www.w3.org/2000/svg">
    <g clip-path="url(#clip0_301_32502)">
      <path fill="#E63050" d="M32.001 0.0585938C38.33 0.0585938 44.5169 1.93536 49.7792 5.45156C55.0416 8.96777 59.1431 13.9655 61.5651 19.8127C63.9871 25.66 64.6208 32.0941 63.3861 38.3015C62.1514 44.5089 59.1037 50.2107 54.6284 54.686C50.1531 59.1613 44.4513 62.209 38.2439 63.4437C32.0365 64.6785 25.6023 64.0447 19.7551 61.6227C13.9079 59.2007 8.91015 55.0992 5.39395 49.8368C1.87774 44.5745 0.000976563 38.3876 0.000976562 32.0586C0.000976563 23.5717 3.3724 15.4323 9.37356 9.43117C15.3747 3.43001 23.514 0.0585938 32.001 0.0585938Z" />
      <path d="M32 37.8197V15.0586M32 49.0586V42.781" stroke="white" stroke-width="6" />
    </g>
    <defs>
      <clipPath id="clip0_301_32502">
        <rect width="64" height="64" fill="white" transform="translate(0 0.0585938)" />
      </clipPath>
    </defs>
  </svg>
