<svg width="74" height="74" fill="none" xmlns="http://www.w3.org/2000/svg"><path d="M30.7 4c4-2.3 8.7-2.3 12.6 0l19.2 11c3.9 2.3 6.3 6.4 6.3 10.9v22.2c0 4.5-2.4 8.6-6.3 10.9L43.3 70a12.5 12.5 0 0 1-12.6 0L11.5 59A12.5 12.5 0 0 1 5.2 48V25.9c0-4.5 2.4-8.6 6.3-10.9L30.7 4Z" fill="#EF4723"/><path d="M13 49.1V25.2h5.1l8 18.6h.1l8-18.6h5v24h-4l.3-18.3-7.9 18.2h-3l-7.8-17.9h-.1l.3 18h-4ZM43 49.1V25.2h10.6c1.3 0 2.4.2 3.4.4 1 .3 1.8.7 2.4 1.3.7.5 1.1 1.2 1.4 2a6.7 6.7 0 0 1 .3 4.2l-.7 1.4c-.3.5-.7.8-1.2 1.2l-1.6.7v.2c.7.1 1.3.3 2 .7l1.4 1.1 1 1.7a7.7 7.7 0 0 1-.2 4.8 7 7 0 0 1-4.1 3.7c-1 .3-2.2.5-3.4.5H43Zm11-10.8h-7V46h7c.7 0 1.3-.1 1.9-.3l1.4-.8.8-1.2a4.5 4.5 0 0 0 0-3.1l-.9-1.2c-.3-.3-.8-.5-1.3-.7a6 6 0 0 0-2-.3Zm-.7-9.9h-6.4v6.8h6.4c.6 0 1.2-.1 1.7-.3.6-.1 1-.4 1.4-.7.3-.4.6-.7.7-1.2a3.6 3.6 0 0 0 0-2.7c0-.4-.3-.7-.7-1-.3-.3-.7-.5-1.3-.6-.5-.2-1-.3-1.8-.3Z" fill="#fff"/></svg>