<svg width="200" height="200" viewBox="0 0 64 64" fill="none" xmlns="http://www.w3.org/2000/svg">
    <path fill="#00D1A7" d="M32.001 0C38.33 0 44.5169 1.87677 49.7792 5.39297C55.0416 8.90918 59.1431 13.9069 61.5651 19.7541C63.9871 25.6014 64.6208 32.0355 63.3861 38.2429C62.1514 44.4503 59.1037 50.1521 54.6284 54.6274C50.1531 59.1027 44.4513 62.1504 38.2439 63.3851C32.0365 64.6199 25.6023 63.9861 19.7551 61.5641C13.9079 59.1421 8.91015 55.0406 5.39395 49.7782C1.87774 44.5159 0.000976563 38.329 0.000976562 32C0.000976563 23.5131 3.3724 15.3737 9.37356 9.37258C15.3747 3.37142 23.514 0 32.001 0V0Z" />
    <path stroke="white" d="M12.6484 30.955L27.0374 44.855L50.9504 21.755" stroke-width="6" />
  </svg>